<svg width="15" height="15" viewBox="0 0 15 15" fill="none" xmlns="http://www.w3.org/2000/svg">
<path fill-rule="evenodd" clip-rule="evenodd" d="M0.274587 0.274587C0.640704 -0.0915291 1.2343 -0.0915291 1.60041 0.274587L7.5 6.17418L13.3996 0.274587C13.7657 -0.0915291 14.3593 -0.0915291 14.7254 0.274587C15.0915 0.640704 15.0915 1.2343 14.7254 1.60041L8.82582 7.5L14.7254 13.3996C15.0915 13.7657 15.0915 14.3593 14.7254 14.7254C14.3593 15.0915 13.7657 15.0915 13.3996 14.7254L7.5 8.82582L1.60041 14.7254C1.2343 15.0915 0.640704 15.0915 0.274587 14.7254C-0.0915291 14.3593 -0.0915291 13.7657 0.274587 13.3996L6.17418 7.5L0.274587 1.60041C-0.0915291 1.2343 -0.0915291 0.640704 0.274587 0.274587Z" fill="#333333"/>
</svg>
