<svg width="16" height="16" viewBox="0 0 16 16" fill="none" xmlns="http://www.w3.org/2000/svg">
<path fill-rule="evenodd" clip-rule="evenodd" d="M7.99984 2.00008C4.68613 2.00008 1.99984 4.68637 1.99984 8.00008C1.99984 11.3138 4.68613 14.0001 7.99984 14.0001C11.3135 14.0001 13.9998 11.3138 13.9998 8.00008C13.9998 4.68637 11.3135 2.00008 7.99984 2.00008ZM0.666504 8.00008C0.666504 3.94999 3.94975 0.666748 7.99984 0.666748C12.0499 0.666748 15.3332 3.94999 15.3332 8.00008C15.3332 12.0502 12.0499 15.3334 7.99984 15.3334C3.94975 15.3334 0.666504 12.0502 0.666504 8.00008Z" fill="#333333"/>
<path fill-rule="evenodd" clip-rule="evenodd" d="M8.00016 4.66675C8.36835 4.66675 8.66683 4.96522 8.66683 5.33341V10.6667C8.66683 11.0349 8.36835 11.3334 8.00016 11.3334C7.63197 11.3334 7.3335 11.0349 7.3335 10.6667V5.33341C7.3335 4.96522 7.63197 4.66675 8.00016 4.66675Z" fill="#333333"/>
<path fill-rule="evenodd" clip-rule="evenodd" d="M4.6665 7.99992C4.6665 7.63173 4.96498 7.33325 5.33317 7.33325H10.6665C11.0347 7.33325 11.3332 7.63173 11.3332 7.99992C11.3332 8.36811 11.0347 8.66659 10.6665 8.66659H5.33317C4.96498 8.66659 4.6665 8.36811 4.6665 7.99992Z" fill="#333333"/>
</svg>
