<svg width="20" height="20" viewBox="0 0 20 20" fill="none" xmlns="http://www.w3.org/2000/svg">
<path d="M8.15 9.30008L6.96667 10.4834C6.2808 9.79768 5.76929 8.95755 5.475 8.03342L7.09167 7.62508C7.35833 8.36675 7.73333 8.87508 8.15 9.30008ZM9.16667 5.00008L5.83333 1.66675L2.5 5.00008H5.01667C5.03333 5.67508 5.08333 6.28341 5.175 6.80841L6.79167 6.40008C6.73333 6.00008 6.69167 5.52508 6.68333 5.00008H9.16667ZM17.5 5.00008L14.1667 1.66675L10.8333 5.00008H13.325C13.2417 8.06675 12.2583 8.95842 11.2083 9.90008C10.7917 10.2667 10.3667 10.6667 10 11.1917C9.71667 10.7834 9.39167 10.4584 9.05833 10.1584L7.88333 11.3334C8.65833 12.0417 9.16667 12.6167 9.16667 14.1667V18.3334H10.8333V14.1667C10.8333 12.4834 11.425 11.9501 12.325 11.1417C13.475 10.1084 14.8917 8.82508 14.9917 5.00008H17.5Z" fill="#333333"/>
</svg>
