<svg width="48" height="46" viewBox="0 0 48 46" fill="none" xmlns="http://www.w3.org/2000/svg">
<path d="M2.3383 15.551C1.78685 15.5387 1.25069 15.3366 0.827295 14.9815C0.403901 14.6265 0.121377 14.1419 0.031083 13.616C-0.0592108 13.0902 0.0487223 12.5578 0.335256 12.1158C0.621791 11.6738 1.0679 11.3514 1.5925 11.2073L44.8632 0.0655766C45.2532 -0.02856 45.6661 -0.0212301 46.0604 0.0868225C46.4546 0.194875 46.8162 0.399838 47.1088 0.681071C47.4014 0.962304 47.6146 1.30988 47.727 1.68879C47.8394 2.0677 47.847 2.46457 47.7491 2.83943L36.1571 44.4293C36.0158 44.9419 35.6838 45.3807 35.2227 45.6643C34.7615 45.9479 34.2024 46.0571 33.6492 45.9716C33.0971 45.8787 32.5904 45.5996 32.2213 45.185C31.8522 44.7704 31.6451 44.2478 31.6378 43.7124C31.9208 28.7892 17.8636 15.2796 2.3383 15.551Z" fill="white"/>
</svg>
