<svg width="386" height="97" viewBox="0 0 386 97" fill="none" xmlns="http://www.w3.org/2000/svg">
<path fill-rule="evenodd" clip-rule="evenodd" d="M196.909 0V7.61846H203.687V37.2652H212.59V28.1353H217.279V25.93L227.536 28.1353H230.048V22.6506L242.321 14.7013L254.592 22.6506V41.3021H260.353V44.9266H268.853V30.134H275.898L275.605 23.9962H283.757V22.2384H292.017L293.288 11.608L294.558 22.2384H296.147V23.9962H298.291L297.505 40.4337H299.027V33.1818L316.105 28.1353V37.2652H333.185V30.134H343.727V25.93L361.787 32.31V25.93L386 34.4843V97H367.941H361.787H344.497H343.727H333.185H316.105H299.027H295.487H280.166H278.409H269.841H268.853H254.592H245.297H230.048H212.59H203.687H188.597H182.146H167.015H162.912H149.018H141.452H129.231H124.804H118.501H107.771H105.017H94.2869H88.4966H83.5565H64.2838H56.2987H45.9131H35.5262H27.5302H25.1405H13.5402H10.4516H0V36.0734H8.2247L7.64813 23.9962H25.1405V6.51395H35.5262V10.2301H45.9131V13.6325H56.2987V31.1738H64.2838V23.0182H67.127V22.1187H85.6528V23.0182H88.4966V40.0242H94.2869V18.168H97.1314V17.2685H115.656V18.168H118.501V30.7538H124.804V23.0182H127.648V22.1187H146.173V23.0182H149.018V25.93L154.963 29.1335V34.5044H162.912V31.1738H167.015V23.0182H182.146V18.1897L188.597 15.4358V7.61846H195.376V0H196.909Z" fill="#737986" fill-opacity="0.14"/>
</svg>
