<svg width="30" height="30" viewBox="0 0 30 30" fill="none" xmlns="http://www.w3.org/2000/svg">
<path d="M18.7495 2.5V15C18.7495 16.375 17.6245 17.5 16.2495 17.5H2.49951V7.5C2.49951 4.7375 4.73701 2.5 7.49951 2.5H18.7495Z" stroke="#333333" stroke-width="2.25" stroke-linecap="round" stroke-linejoin="round"/>
<path d="M27.4995 17.5V21.25C27.4995 23.325 25.8245 25 23.7495 25H22.4995C22.4995 23.625 21.3745 22.5 19.9995 22.5C18.6245 22.5 17.4995 23.625 17.4995 25H12.4995C12.4995 23.625 11.3745 22.5 9.99951 22.5C8.62451 22.5 7.49951 23.625 7.49951 25H6.24951C4.17451 25 2.49951 23.325 2.49951 21.25V17.5H16.2495C17.6245 17.5 18.7495 16.375 18.7495 15V6.25H21.0495C21.9495 6.25 22.7745 6.73751 23.2245 7.51251L25.362 11.25H23.7495C23.062 11.25 22.4995 11.8125 22.4995 12.5V16.25C22.4995 16.9375 23.062 17.5 23.7495 17.5H27.4995Z" stroke="#333333" stroke-width="2.25" stroke-linecap="round" stroke-linejoin="round"/>
<path d="M10 27.5C11.3807 27.5 12.5 26.3807 12.5 25C12.5 23.6193 11.3807 22.5 10 22.5C8.61929 22.5 7.5 23.6193 7.5 25C7.5 26.3807 8.61929 27.5 10 27.5Z" stroke="#333333" stroke-width="2.25" stroke-linecap="round" stroke-linejoin="round"/>
<path d="M19.9995 27.5C21.3802 27.5 22.4995 26.3807 22.4995 25C22.4995 23.6193 21.3802 22.5 19.9995 22.5C18.6188 22.5 17.4995 23.6193 17.4995 25C17.4995 26.3807 18.6188 27.5 19.9995 27.5Z" stroke="#333333" stroke-width="2.25" stroke-linecap="round" stroke-linejoin="round"/>
<path d="M27.5 15V17.5H23.75C23.0625 17.5 22.5 16.9375 22.5 16.25V12.5C22.5 11.8125 23.0625 11.25 23.75 11.25H25.3625L27.5 15Z" stroke="#333333" stroke-width="2.25" stroke-linecap="round" stroke-linejoin="round"/>
</svg>
