<svg width="30" height="30" viewBox="0 0 30 30" fill="none" xmlns="http://www.w3.org/2000/svg">
<path fill-rule="evenodd" clip-rule="evenodd" d="M7.77459 7.77459C8.1407 7.40847 8.7343 7.40847 9.10041 7.77459L15 13.6742L20.8996 7.77459C21.2657 7.40847 21.8593 7.40847 22.2254 7.77459C22.5915 8.1407 22.5915 8.7343 22.2254 9.10041L16.3258 15L22.2254 20.8996C22.5915 21.2657 22.5915 21.8593 22.2254 22.2254C21.8593 22.5915 21.2657 22.5915 20.8996 22.2254L15 16.3258L9.10041 22.2254C8.7343 22.5915 8.1407 22.5915 7.77459 22.2254C7.40847 21.8593 7.40847 21.2657 7.77459 20.8996L13.6742 15L7.77459 9.10041C7.40847 8.7343 7.40847 8.1407 7.77459 7.77459Z" fill="#333333"/>
</svg>
