<svg width="44" height="35" viewBox="0 0 44 35" fill="none" xmlns="http://www.w3.org/2000/svg">
<g opacity="0.78" clip-path="url(#clip0_241_13005)">
<path d="M30.6502 32.3659C30.6502 33.2411 30.6502 34.0646 30.6502 34.9226C30.5005 34.9312 30.3628 34.9467 30.2252 34.9467C23.4376 34.9485 16.6499 34.9243 9.86231 34.9571C6.71368 34.9726 4.24295 32.6381 3.95733 29.8212C3.59258 26.2221 6.22504 23.3466 9.88468 23.3363C13.8661 23.3242 17.8475 23.3294 21.8271 23.3345C23.2277 23.3363 24.2875 22.766 24.931 21.5031C25.9066 19.5907 24.6024 17.177 22.4706 16.9427C22.1299 16.9048 21.7858 16.8858 21.4434 16.8841C18.9228 16.8789 16.4022 16.8824 13.8816 16.8824C13.7147 16.8824 13.546 16.8824 13.3568 16.8824C13.3568 16.0089 13.3568 15.1836 13.3568 14.3273C13.4944 14.317 13.6183 14.2998 13.7422 14.2998C16.4624 14.298 19.1843 14.2877 21.9045 14.3015C24.7934 14.3153 27.0714 16.1329 27.7115 18.9067C28.496 22.3094 25.8498 25.831 22.3622 25.8878C18.2397 25.955 14.1138 25.9137 9.98964 25.9154C8.83858 25.9154 7.84753 26.2686 7.1421 27.2214C6.41946 28.1982 6.2887 29.2819 6.74981 30.3897C7.22125 31.5182 8.11078 32.1677 9.33066 32.3349C9.59907 32.371 9.87436 32.3641 10.1462 32.3641C16.791 32.3659 23.4359 32.3659 30.0807 32.3659C30.2613 32.3659 30.4437 32.3659 30.6502 32.3659Z" fill="#666666"/>
<path d="M7.05788 16.8693C5.3029 15.1326 3.58406 13.4511 1.89446 11.742C1.51766 11.3595 1.20107 10.9012 0.927504 10.4361C-1.51914 6.25464 1.12709 0.77933 5.92402 0.0798422C8.93157 -0.359492 11.7705 1.06188 13.1848 3.71511C14.5819 6.33733 14.1776 9.56084 12.094 11.7627C10.53 13.4149 8.88856 14.9965 7.28327 16.6109C7.2024 16.6901 7.13186 16.7814 7.05788 16.8693ZM9.12083 6.94896C9.12944 5.755 8.18313 4.77985 6.99077 4.75401C5.7967 4.72989 4.79877 5.72054 4.79877 6.93C4.8005 8.12224 5.76057 9.09222 6.9512 9.10255C8.12807 9.11289 9.11395 8.13602 9.12083 6.94896Z" fill="#666666"/>
<path d="M36.9645 34.9501C36.5309 34.5039 36.0991 34.0491 35.6569 33.6046C34.4852 32.4261 33.3014 31.2615 32.1383 30.0761C29.3889 27.2764 29.2581 23.1157 31.9095 20.285C33.864 18.1986 36.3279 17.5387 39.0464 18.3778C41.8148 19.2306 43.4717 21.1964 43.9139 24.084C44.258 26.3375 43.5732 28.3119 41.9972 29.9435C40.3953 31.6009 38.7453 33.2118 37.1159 34.8433C37.0849 34.8726 37.0471 34.8916 36.9645 34.9501ZM34.8018 24.9954C34.8018 26.1824 35.7704 27.1593 36.9559 27.1696C38.1345 27.1782 39.1152 26.2065 39.1255 25.0143C39.1359 23.8031 38.15 22.8056 36.9542 22.8176C35.767 22.8297 34.8018 23.8083 34.8018 24.9954Z" fill="#666666"/>
</g>
<defs>
<clipPath id="clip0_241_13005">
<rect width="44" height="34.9589" fill="white"/>
</clipPath>
</defs>
</svg>
